PathFileType	4	(X/Y/Z)	OpenSim_Sub07_CSBaseline_Magnet.trc
DataRate	CameraRate	NumFrames	NumMarkers	Units	OrigDataRate	OrigDataStartFrame	OrigNumFrames
100	100	13	8	m	100	3895	7788
Frame#	Time	torso_imu_offset_imu	pelvis_imu_offset_imu	tibia_r_imu_offset_imu	femur_r_imu_offset_imu	tibia_l_imu_offset_imu	femur_l_imu_offset_imu	toes_r_imu_offset_imu	toes_l_imu_offset_imu
				X1	Y1	Z1	X2	Y2	Z2	X3	Y3	Z3	X4	Y4	Z4	X5	Y5	Z5	X6	Y6	Z6	X7	Y7	Z7	X8		Y8	Z8	

3895	38.94000000	0.93687543	0.17587123	0.00313948	-0.73310556	0.14535044	-0.59571819	-0.62294225	-0.52138089	0.18195428	-0.79834329	-0.32141589	-0.01431463	-0.17394322	0.79449221	-0.22482329	-0.69058648	-0.29191289	0.06886907	-0.63779730	-0.30457347	-0.31886209	-0.78327328	0.09311657	0.29024620
3896	38.95000000	0.93467246	0.17583066	0.00225120	-0.72752938	0.14929451	-0.59816205	-0.61993385	-0.52327383	0.18008919	-0.79380520	-0.32979592	-0.01474594	-0.18639544	0.78758295	-0.23415024	-0.69216800	-0.29477192	0.07135504	-0.63712366	-0.30633902	-0.31457348	-0.79272745	0.09603794	0.26336306
3897	38.96000000	0.93611792	0.17124799	0.00567962	-0.73490347	0.14259897	-0.59447756	-0.61579050	-0.52584483	0.17441482	-0.79317164	-0.33746924	-0.01578380	-0.20738567	0.78047820	-0.23290765	-0.68874994	-0.30124905	0.07019901	-0.62814468	-0.30541328	-0.31919462	-0.80248011	0.09170778	0.22474106
3898	38.97000000	0.93717310	0.17078303	0.01165820	-0.73421973	0.14586116	-0.60096534	-0.61487350	-0.53095357	0.16884126	-0.79265921	-0.34124597	-0.02595924	-0.22721146	0.77759672	-0.22788881	-0.68970600	-0.32019375	0.07118833	-0.62124590	-0.30915452	-0.31628869	-0.81270565	0.08890850	0.19693920
3899	38.98000000	0.93421159	0.17294166	0.01137796	-0.73026928	0.13840434	-0.60250438	-0.61669729	-0.53620840	0.16788064	-0.79076588	-0.35093422	-0.02726256	-0.24694422	0.76682909	-0.21663551	-0.68850068	-0.31958843	0.07187211	-0.62252101	-0.30824559	-0.32328008	-0.81826469	0.08174073	0.16442600
3900	38.99000000	0.93252083	0.17566214	0.01456424	-0.73143632	0.13554826	-0.59725606	-0.61633814	-0.53776580	0.16812666	-0.78220614	-0.35463154	-0.03194110	-0.26792050	0.76215436	-0.19459130	-0.69386875	-0.32782815	0.07530779	-0.61895814	-0.31382992	-0.32807698	-0.82556232	0.07177280	0.12610194
3901	39	0.93369095	0.17498961	0.01107727	-0.72810984	0.13258150	-0.59681162	-0.61185992	-0.54085941	0.16788371	-0.78055378	-0.36520363	-0.03756599	-0.29340389	0.76567424	-0.16932518	-0.69615003	-0.33893907	0.07068199	-0.61722607	-0.32011591	-0.33571476	-0.82865649	0.05848841	0.09914226
3902	39.01000000	0.93498930	0.16987089	0.01962967	-0.72192343	0.13027152	-0.60297204	-0.60925619	-0.54418314	0.16488395	-0.77674210	-0.37131941	-0.04543688	-0.32096259	0.75885486	-0.13387607	-0.69261058	-0.34293267	0.07381446	-0.61222668	-0.31694356	-0.33910034	-0.82819157	0.04447567	0.06220999
3903	39.02000000	0.93268126	0.16951147	0.01869469	-0.72811211	0.13164339	-0.60829003	-0.61349075	-0.54749454	0.16973986	-0.77913263	-0.37163790	-0.05046538	-0.34883044	0.75329596	-0.10035781	-0.69228430	-0.34917294	0.07009022	-0.61603983	-0.32075317	-0.34427562	-0.83228888	0.02622094	0.03189346
3904	39.03000000	0.93372233	0.16914241	0.02162315	-0.72644266	0.13023248	-0.60743542	-0.60465106	-0.55257793	0.17629431	-0.77279303	-0.38243511	-0.05601583	-0.37741938	0.74695401	-0.07417856	-0.69682565	-0.34924247	0.07233176	-0.61535036	-0.32212676	-0.35393211	-0.83052592	0.00511762	0.00334932
3905	39.04000000	0.93519407	0.17264816	0.02276299	-0.71780247	0.12725414	-0.60801702	-0.60131841	-0.55639162	0.16749639	-0.76434605	-0.38748128	-0.05713712	-0.40886669	0.72668040	-0.06052904	-0.69352705	-0.34912800	0.06865523	-0.61289720	-0.32699574	-0.36299053	-0.83172123	-0.01848067	-0.01491355
3906	39.05000000	0.93518515	0.17301950	0.02777777	-0.71924450	0.12259609	-0.61069097	-0.60276989	-0.56299691	0.16945708	-0.75575830	-0.39460262	-0.06573605	-0.43573234	0.70642748	-0.04920642	-0.68952583	-0.35595048	0.06485222	-0.61723210	-0.32792176	-0.36589584	-0.81996932	-0.04136440	-0.04671817
3907	39.06000000	0.93437316	0.16922114	0.03378822	-0.72457322	0.12319868	-0.61142388	-0.60043870	-0.56385461	0.16820889	-0.76086176	-0.40229086	-0.07436733	-0.46609920	0.68788581	-0.03481307	-0.69379549	-0.35979917	0.06283818	-0.61972555	-0.33430533	-0.37195733	-0.81618319	-0.06656524	-0.07512171
